<mxfile host="app.diagrams.net" modified="2022-05-16T15:00:27.312Z" agent="5.0 (Windows NT 10.0; Win64; x64) AppleWebKit/537.36 (KHTML, like Gecko) Chrome/101.0.4951.54 Safari/537.36" etag="ZzJv6v8M6skvDPv6ZIEC" version="17.5.0" type="github">
  <diagram id="C5RBs43oDa-KdzZeNtuy" name="Page-1">
    <mxGraphModel dx="-13191" dy="482" grid="1" gridSize="10" guides="1" tooltips="1" connect="1" arrows="1" fold="1" page="1" pageScale="1" pageWidth="827" pageHeight="1169" math="0" shadow="0">
      <root>
        <mxCell id="WIyWlLk6GJQsqaUBKTNV-0" />
        <mxCell id="WIyWlLk6GJQsqaUBKTNV-1" parent="WIyWlLk6GJQsqaUBKTNV-0" />
        <mxCell id="y2dhiz86EKQkeLCfZQJ_-1" value="&lt;p style=&quot;line-height: 1.3&quot;&gt;Comment&lt;/p&gt;" style="swimlane;html=1;fontStyle=1;align=center;verticalAlign=top;childLayout=stackLayout;horizontal=1;startSize=46;horizontalStack=0;resizeParent=1;resizeLast=0;collapsible=1;marginBottom=0;swimlaneFillColor=#ffffff;rounded=0;shadow=0;comic=0;labelBackgroundColor=none;strokeWidth=1;fontFamily=Verdana;fontSize=12;" vertex="1" collapsed="1" parent="WIyWlLk6GJQsqaUBKTNV-1">
          <mxGeometry x="15571" y="230" width="103" height="46" as="geometry">
            <mxRectangle x="430" y="332.5" width="160" height="77" as="alternateBounds" />
          </mxGeometry>
        </mxCell>
        <mxCell id="y2dhiz86EKQkeLCfZQJ_-2" value="" style="line;html=1;strokeWidth=1;fillColor=none;align=left;verticalAlign=middle;spacingTop=-1;spacingLeft=3;spacingRight=3;rotatable=0;labelPosition=right;points=[];portConstraint=eastwest;" vertex="1" parent="y2dhiz86EKQkeLCfZQJ_-1">
          <mxGeometry y="46" width="103" height="8" as="geometry" />
        </mxCell>
        <mxCell id="y2dhiz86EKQkeLCfZQJ_-3" value="&lt;p style=&quot;line-height: 1.3&quot;&gt;Event&lt;/p&gt;" style="swimlane;html=1;fontStyle=1;align=center;verticalAlign=top;childLayout=stackLayout;horizontal=1;startSize=46;horizontalStack=0;resizeParent=1;resizeLast=0;collapsible=1;marginBottom=0;swimlaneFillColor=#ffffff;rounded=0;shadow=0;comic=0;labelBackgroundColor=none;strokeWidth=1;fontFamily=Verdana;fontSize=12;" vertex="1" collapsed="1" parent="WIyWlLk6GJQsqaUBKTNV-1">
          <mxGeometry x="15571" y="117" width="103" height="46" as="geometry">
            <mxRectangle x="430" y="332.5" width="160" height="77" as="alternateBounds" />
          </mxGeometry>
        </mxCell>
        <mxCell id="y2dhiz86EKQkeLCfZQJ_-4" value="" style="line;html=1;strokeWidth=1;fillColor=none;align=left;verticalAlign=middle;spacingTop=-1;spacingLeft=3;spacingRight=3;rotatable=0;labelPosition=right;points=[];portConstraint=eastwest;" vertex="1" parent="y2dhiz86EKQkeLCfZQJ_-3">
          <mxGeometry y="46" width="103" height="8" as="geometry" />
        </mxCell>
        <mxCell id="y2dhiz86EKQkeLCfZQJ_-5" value="&lt;p style=&quot;line-height: 1.4&quot;&gt;Files&lt;/p&gt;" style="swimlane;html=1;fontStyle=1;align=center;verticalAlign=top;childLayout=stackLayout;horizontal=1;startSize=46;horizontalStack=0;resizeParent=1;resizeLast=0;collapsible=1;marginBottom=0;swimlaneFillColor=#ffffff;rounded=0;shadow=0;comic=0;labelBackgroundColor=none;strokeWidth=1;fontFamily=Verdana;fontSize=12;" vertex="1" collapsed="1" parent="WIyWlLk6GJQsqaUBKTNV-1">
          <mxGeometry x="15571" y="424" width="103" height="46" as="geometry">
            <mxRectangle x="430" y="332.5" width="160" height="77" as="alternateBounds" />
          </mxGeometry>
        </mxCell>
        <mxCell id="y2dhiz86EKQkeLCfZQJ_-6" value="" style="line;html=1;strokeWidth=1;fillColor=none;align=left;verticalAlign=middle;spacingTop=-1;spacingLeft=3;spacingRight=3;rotatable=0;labelPosition=right;points=[];portConstraint=eastwest;" vertex="1" parent="y2dhiz86EKQkeLCfZQJ_-5">
          <mxGeometry y="46" width="103" height="8" as="geometry" />
        </mxCell>
        <mxCell id="y2dhiz86EKQkeLCfZQJ_-7" value="&lt;p style=&quot;line-height: 1.3&quot;&gt;Group&lt;br&gt;&lt;/p&gt;" style="swimlane;html=1;fontStyle=1;align=center;verticalAlign=top;childLayout=stackLayout;horizontal=1;startSize=46;horizontalStack=0;resizeParent=1;resizeLast=0;collapsible=1;marginBottom=0;swimlaneFillColor=#ffffff;rounded=0;shadow=0;comic=0;labelBackgroundColor=none;strokeWidth=1;fontFamily=Verdana;fontSize=12;" vertex="1" collapsed="1" parent="WIyWlLk6GJQsqaUBKTNV-1">
          <mxGeometry x="15050" y="154" width="103" height="46" as="geometry">
            <mxRectangle x="430" y="332.5" width="160" height="77" as="alternateBounds" />
          </mxGeometry>
        </mxCell>
        <mxCell id="y2dhiz86EKQkeLCfZQJ_-8" value="" style="line;html=1;strokeWidth=1;fillColor=none;align=left;verticalAlign=middle;spacingTop=-1;spacingLeft=3;spacingRight=3;rotatable=0;labelPosition=right;points=[];portConstraint=eastwest;" vertex="1" parent="y2dhiz86EKQkeLCfZQJ_-7">
          <mxGeometry y="46" width="103" height="8" as="geometry" />
        </mxCell>
        <mxCell id="y2dhiz86EKQkeLCfZQJ_-9" style="edgeStyle=orthogonalEdgeStyle;rounded=0;orthogonalLoop=1;jettySize=auto;html=1;exitX=0.5;exitY=0;exitDx=0;exitDy=0;entryX=0.5;entryY=1;entryDx=0;entryDy=0;fontFamily=Verdana;startArrow=ERmany;startFill=0;endArrow=ERmany;endFill=0;" edge="1" parent="WIyWlLk6GJQsqaUBKTNV-1" source="y2dhiz86EKQkeLCfZQJ_-10" target="y2dhiz86EKQkeLCfZQJ_-7">
          <mxGeometry relative="1" as="geometry" />
        </mxCell>
        <mxCell id="y2dhiz86EKQkeLCfZQJ_-61" style="edgeStyle=orthogonalEdgeStyle;rounded=0;sketch=0;orthogonalLoop=1;jettySize=auto;html=1;exitX=0;exitY=0.5;exitDx=0;exitDy=0;entryX=1;entryY=0.5;entryDx=0;entryDy=0;startArrow=ERmany;startFill=0;endArrow=none;endFill=0;" edge="1" parent="WIyWlLk6GJQsqaUBKTNV-1" source="y2dhiz86EKQkeLCfZQJ_-10" target="y2dhiz86EKQkeLCfZQJ_-52">
          <mxGeometry relative="1" as="geometry" />
        </mxCell>
        <mxCell id="y2dhiz86EKQkeLCfZQJ_-65" style="edgeStyle=orthogonalEdgeStyle;rounded=0;sketch=0;orthogonalLoop=1;jettySize=auto;html=1;exitX=0.25;exitY=1;exitDx=0;exitDy=0;entryX=1;entryY=0.5;entryDx=0;entryDy=0;startArrow=ERmany;startFill=0;endArrow=none;endFill=0;" edge="1" parent="WIyWlLk6GJQsqaUBKTNV-1" source="y2dhiz86EKQkeLCfZQJ_-10" target="y2dhiz86EKQkeLCfZQJ_-62">
          <mxGeometry relative="1" as="geometry" />
        </mxCell>
        <mxCell id="y2dhiz86EKQkeLCfZQJ_-67" style="edgeStyle=orthogonalEdgeStyle;rounded=0;sketch=0;orthogonalLoop=1;jettySize=auto;html=1;exitX=0.75;exitY=1;exitDx=0;exitDy=0;entryX=0;entryY=0.5;entryDx=0;entryDy=0;startArrow=ERmany;startFill=0;endArrow=none;endFill=0;" edge="1" parent="WIyWlLk6GJQsqaUBKTNV-1" source="y2dhiz86EKQkeLCfZQJ_-10" target="y2dhiz86EKQkeLCfZQJ_-25">
          <mxGeometry relative="1" as="geometry" />
        </mxCell>
        <mxCell id="y2dhiz86EKQkeLCfZQJ_-10" value="&lt;p style=&quot;line-height: 1.3&quot;&gt;Users&lt;/p&gt;" style="swimlane;html=1;fontStyle=1;align=center;verticalAlign=top;childLayout=stackLayout;horizontal=1;startSize=46;horizontalStack=0;resizeParent=1;resizeLast=0;collapsible=1;marginBottom=0;swimlaneFillColor=#ffffff;rounded=0;shadow=0;comic=0;labelBackgroundColor=none;strokeWidth=1;fontFamily=Verdana;fontSize=12;" vertex="1" collapsed="1" parent="WIyWlLk6GJQsqaUBKTNV-1">
          <mxGeometry x="15050" y="365.5" width="103" height="46" as="geometry">
            <mxRectangle x="430" y="332.5" width="160" height="77" as="alternateBounds" />
          </mxGeometry>
        </mxCell>
        <mxCell id="y2dhiz86EKQkeLCfZQJ_-11" value="" style="line;html=1;strokeWidth=1;fillColor=none;align=left;verticalAlign=middle;spacingTop=-1;spacingLeft=3;spacingRight=3;rotatable=0;labelPosition=right;points=[];portConstraint=eastwest;" vertex="1" parent="y2dhiz86EKQkeLCfZQJ_-10">
          <mxGeometry y="46" width="103" height="8" as="geometry" />
        </mxCell>
        <mxCell id="y2dhiz86EKQkeLCfZQJ_-12" style="edgeStyle=none;rounded=0;orthogonalLoop=1;jettySize=auto;html=1;exitX=0.5;exitY=1;exitDx=0;exitDy=0;startArrow=none;startFill=0;endArrow=ERmany;endFill=0;" edge="1" parent="WIyWlLk6GJQsqaUBKTNV-1" source="y2dhiz86EKQkeLCfZQJ_-13" target="y2dhiz86EKQkeLCfZQJ_-25">
          <mxGeometry relative="1" as="geometry" />
        </mxCell>
        <mxCell id="y2dhiz86EKQkeLCfZQJ_-13" value="&lt;p style=&quot;line-height: 1.3&quot;&gt;Module&lt;/p&gt;" style="swimlane;html=1;fontStyle=1;align=center;verticalAlign=top;childLayout=stackLayout;horizontal=1;startSize=46;horizontalStack=0;resizeParent=1;resizeLast=0;collapsible=1;marginBottom=0;swimlaneFillColor=#ffffff;rounded=0;shadow=0;comic=0;labelBackgroundColor=none;strokeWidth=1;fontFamily=Verdana;fontSize=12;" vertex="1" collapsed="1" parent="WIyWlLk6GJQsqaUBKTNV-1">
          <mxGeometry x="15348" y="297" width="103" height="46" as="geometry">
            <mxRectangle x="430" y="332.5" width="160" height="77" as="alternateBounds" />
          </mxGeometry>
        </mxCell>
        <mxCell id="y2dhiz86EKQkeLCfZQJ_-14" value="" style="line;html=1;strokeWidth=1;fillColor=none;align=left;verticalAlign=middle;spacingTop=-1;spacingLeft=3;spacingRight=3;rotatable=0;labelPosition=right;points=[];portConstraint=eastwest;" vertex="1" parent="y2dhiz86EKQkeLCfZQJ_-13">
          <mxGeometry y="46" width="103" height="8" as="geometry" />
        </mxCell>
        <mxCell id="y2dhiz86EKQkeLCfZQJ_-15" style="edgeStyle=none;rounded=0;orthogonalLoop=1;jettySize=auto;html=1;exitX=1;exitY=1;exitDx=0;exitDy=0;entryX=0;entryY=0;entryDx=0;entryDy=0;startArrow=none;startFill=0;endArrow=ERmany;endFill=0;" edge="1" parent="WIyWlLk6GJQsqaUBKTNV-1" source="y2dhiz86EKQkeLCfZQJ_-18" target="y2dhiz86EKQkeLCfZQJ_-1">
          <mxGeometry relative="1" as="geometry" />
        </mxCell>
        <mxCell id="y2dhiz86EKQkeLCfZQJ_-16" style="edgeStyle=none;rounded=0;orthogonalLoop=1;jettySize=auto;html=1;exitX=1;exitY=0;exitDx=0;exitDy=0;entryX=0;entryY=0.25;entryDx=0;entryDy=0;startArrow=none;startFill=0;endArrow=ERmany;endFill=0;" edge="1" parent="WIyWlLk6GJQsqaUBKTNV-1" source="y2dhiz86EKQkeLCfZQJ_-18" target="y2dhiz86EKQkeLCfZQJ_-3">
          <mxGeometry relative="1" as="geometry">
            <mxPoint x="15570" y="130" as="targetPoint" />
          </mxGeometry>
        </mxCell>
        <mxCell id="y2dhiz86EKQkeLCfZQJ_-17" style="edgeStyle=none;rounded=0;orthogonalLoop=1;jettySize=auto;html=1;exitX=0.5;exitY=1;exitDx=0;exitDy=0;entryX=0.5;entryY=0;entryDx=0;entryDy=0;startArrow=none;startFill=0;endArrow=ERmany;endFill=0;" edge="1" parent="WIyWlLk6GJQsqaUBKTNV-1" source="y2dhiz86EKQkeLCfZQJ_-18" target="y2dhiz86EKQkeLCfZQJ_-13">
          <mxGeometry relative="1" as="geometry" />
        </mxCell>
        <mxCell id="y2dhiz86EKQkeLCfZQJ_-73" style="edgeStyle=orthogonalEdgeStyle;rounded=0;sketch=0;orthogonalLoop=1;jettySize=auto;html=1;exitX=0.5;exitY=0;exitDx=0;exitDy=0;entryX=0.5;entryY=1;entryDx=0;entryDy=0;startArrow=ERmany;startFill=0;endArrow=none;endFill=0;" edge="1" parent="WIyWlLk6GJQsqaUBKTNV-1" source="y2dhiz86EKQkeLCfZQJ_-18" target="y2dhiz86EKQkeLCfZQJ_-71">
          <mxGeometry relative="1" as="geometry" />
        </mxCell>
        <mxCell id="y2dhiz86EKQkeLCfZQJ_-18" value="&lt;p style=&quot;line-height: 1.3&quot;&gt;Project&lt;/p&gt;" style="swimlane;html=1;fontStyle=1;align=center;verticalAlign=top;childLayout=stackLayout;horizontal=1;startSize=46;horizontalStack=0;resizeParent=1;resizeLast=0;collapsible=1;marginBottom=0;swimlaneFillColor=#ffffff;rounded=0;shadow=0;comic=0;labelBackgroundColor=none;strokeWidth=1;fontFamily=Verdana;fontSize=12;" vertex="1" collapsed="1" parent="WIyWlLk6GJQsqaUBKTNV-1">
          <mxGeometry x="15348" y="154" width="103" height="46" as="geometry">
            <mxRectangle x="430" y="332.5" width="160" height="77" as="alternateBounds" />
          </mxGeometry>
        </mxCell>
        <mxCell id="y2dhiz86EKQkeLCfZQJ_-19" value="" style="line;html=1;strokeWidth=1;fillColor=none;align=left;verticalAlign=middle;spacingTop=-1;spacingLeft=3;spacingRight=3;rotatable=0;labelPosition=right;points=[];portConstraint=eastwest;" vertex="1" parent="y2dhiz86EKQkeLCfZQJ_-18">
          <mxGeometry y="46" width="103" height="8" as="geometry" />
        </mxCell>
        <mxCell id="y2dhiz86EKQkeLCfZQJ_-20" style="rounded=0;orthogonalLoop=1;jettySize=auto;html=1;exitX=0.75;exitY=0;exitDx=0;exitDy=0;entryX=0.25;entryY=1;entryDx=0;entryDy=0;startArrow=none;startFill=0;endArrow=none;endFill=0;" edge="1" parent="WIyWlLk6GJQsqaUBKTNV-1" source="y2dhiz86EKQkeLCfZQJ_-21" target="y2dhiz86EKQkeLCfZQJ_-25">
          <mxGeometry relative="1" as="geometry" />
        </mxCell>
        <mxCell id="y2dhiz86EKQkeLCfZQJ_-21" value="&lt;p style=&quot;line-height: 1&quot;&gt;Status&lt;/p&gt;" style="swimlane;html=1;fontStyle=1;align=center;verticalAlign=top;childLayout=stackLayout;horizontal=1;startSize=46;horizontalStack=0;resizeParent=1;resizeLast=0;collapsible=1;marginBottom=0;swimlaneFillColor=#ffffff;rounded=0;shadow=0;comic=0;labelBackgroundColor=none;strokeWidth=1;fontFamily=Verdana;fontSize=12;" vertex="1" collapsed="1" parent="WIyWlLk6GJQsqaUBKTNV-1">
          <mxGeometry x="15210" y="560" width="103" height="46" as="geometry">
            <mxRectangle x="430" y="332.5" width="160" height="77" as="alternateBounds" />
          </mxGeometry>
        </mxCell>
        <mxCell id="y2dhiz86EKQkeLCfZQJ_-22" value="" style="line;html=1;strokeWidth=1;fillColor=none;align=left;verticalAlign=middle;spacingTop=-1;spacingLeft=3;spacingRight=3;rotatable=0;labelPosition=right;points=[];portConstraint=eastwest;" vertex="1" parent="y2dhiz86EKQkeLCfZQJ_-21">
          <mxGeometry y="46" width="103" height="8" as="geometry" />
        </mxCell>
        <mxCell id="y2dhiz86EKQkeLCfZQJ_-23" style="edgeStyle=orthogonalEdgeStyle;rounded=0;orthogonalLoop=1;jettySize=auto;html=1;exitX=1;exitY=0.5;exitDx=0;exitDy=0;entryX=0;entryY=0.5;entryDx=0;entryDy=0;startArrow=none;startFill=0;endArrow=ERmany;endFill=0;" edge="1" parent="WIyWlLk6GJQsqaUBKTNV-1" source="y2dhiz86EKQkeLCfZQJ_-25" target="y2dhiz86EKQkeLCfZQJ_-5">
          <mxGeometry relative="1" as="geometry" />
        </mxCell>
        <mxCell id="y2dhiz86EKQkeLCfZQJ_-24" style="edgeStyle=none;rounded=0;orthogonalLoop=1;jettySize=auto;html=1;exitX=0.75;exitY=1;exitDx=0;exitDy=0;entryX=0.25;entryY=0;entryDx=0;entryDy=0;startArrow=none;startFill=0;endArrow=ERmany;endFill=0;" edge="1" parent="WIyWlLk6GJQsqaUBKTNV-1" source="y2dhiz86EKQkeLCfZQJ_-25" target="y2dhiz86EKQkeLCfZQJ_-27">
          <mxGeometry relative="1" as="geometry" />
        </mxCell>
        <mxCell id="y2dhiz86EKQkeLCfZQJ_-25" value="&lt;p style=&quot;line-height: 1.3&quot;&gt;Task&lt;/p&gt;" style="swimlane;html=1;fontStyle=1;align=center;verticalAlign=top;childLayout=stackLayout;horizontal=1;startSize=46;horizontalStack=0;resizeParent=1;resizeLast=0;collapsible=1;marginBottom=0;swimlaneFillColor=#ffffff;rounded=0;shadow=0;comic=0;labelBackgroundColor=none;strokeWidth=1;fontFamily=Verdana;fontSize=12;" vertex="1" collapsed="1" parent="WIyWlLk6GJQsqaUBKTNV-1">
          <mxGeometry x="15348" y="424" width="103" height="46" as="geometry">
            <mxRectangle x="430" y="332.5" width="160" height="77" as="alternateBounds" />
          </mxGeometry>
        </mxCell>
        <mxCell id="y2dhiz86EKQkeLCfZQJ_-26" value="" style="line;html=1;strokeWidth=1;fillColor=none;align=left;verticalAlign=middle;spacingTop=-1;spacingLeft=3;spacingRight=3;rotatable=0;labelPosition=right;points=[];portConstraint=eastwest;" vertex="1" parent="y2dhiz86EKQkeLCfZQJ_-25">
          <mxGeometry y="46" width="103" height="8" as="geometry" />
        </mxCell>
        <mxCell id="y2dhiz86EKQkeLCfZQJ_-27" value="&lt;p style=&quot;line-height: 1.3&quot;&gt;TaskC&lt;span&gt;omment&lt;/span&gt;&lt;/p&gt;" style="swimlane;html=1;fontStyle=1;align=center;verticalAlign=top;childLayout=stackLayout;horizontal=1;startSize=46;horizontalStack=0;resizeParent=1;resizeLast=0;collapsible=1;marginBottom=0;swimlaneFillColor=#ffffff;rounded=0;shadow=0;comic=0;labelBackgroundColor=none;strokeWidth=1;fontFamily=Verdana;fontSize=12;" vertex="1" collapsed="1" parent="WIyWlLk6GJQsqaUBKTNV-1">
          <mxGeometry x="15499.5" y="560" width="103" height="46" as="geometry">
            <mxRectangle x="430" y="332.5" width="160" height="77" as="alternateBounds" />
          </mxGeometry>
        </mxCell>
        <mxCell id="y2dhiz86EKQkeLCfZQJ_-28" value="" style="line;html=1;strokeWidth=1;fillColor=none;align=left;verticalAlign=middle;spacingTop=-1;spacingLeft=3;spacingRight=3;rotatable=0;labelPosition=right;points=[];portConstraint=eastwest;" vertex="1" parent="y2dhiz86EKQkeLCfZQJ_-27">
          <mxGeometry y="46" width="103" height="8" as="geometry" />
        </mxCell>
        <mxCell id="y2dhiz86EKQkeLCfZQJ_-29" value="0..N" style="text;html=1;align=center;verticalAlign=middle;resizable=0;points=[];autosize=1;strokeColor=none;fillColor=none;" vertex="1" parent="WIyWlLk6GJQsqaUBKTNV-1">
          <mxGeometry x="15361" y="404" width="40" height="20" as="geometry" />
        </mxCell>
        <mxCell id="y2dhiz86EKQkeLCfZQJ_-31" style="edgeStyle=orthogonalEdgeStyle;rounded=0;orthogonalLoop=1;jettySize=auto;html=1;exitX=0;exitY=0.5;exitDx=0;exitDy=0;entryX=1;entryY=0.5;entryDx=0;entryDy=0;startArrow=none;startFill=0;endArrow=ERmany;endFill=0;" edge="1" parent="WIyWlLk6GJQsqaUBKTNV-1" target="y2dhiz86EKQkeLCfZQJ_-7">
          <mxGeometry relative="1" as="geometry">
            <mxPoint x="15296" y="177" as="sourcePoint" />
          </mxGeometry>
        </mxCell>
        <mxCell id="y2dhiz86EKQkeLCfZQJ_-32" style="edgeStyle=orthogonalEdgeStyle;rounded=0;orthogonalLoop=1;jettySize=auto;html=1;entryX=0;entryY=0.5;entryDx=0;entryDy=0;startArrow=none;startFill=0;endArrow=ERmany;endFill=0;" edge="1" parent="WIyWlLk6GJQsqaUBKTNV-1" target="y2dhiz86EKQkeLCfZQJ_-18">
          <mxGeometry relative="1" as="geometry">
            <mxPoint x="15286" y="177" as="sourcePoint" />
          </mxGeometry>
        </mxCell>
        <mxCell id="y2dhiz86EKQkeLCfZQJ_-33" value="N" style="text;html=1;align=center;verticalAlign=middle;resizable=0;points=[];autosize=1;strokeColor=none;fillColor=none;" vertex="1" parent="WIyWlLk6GJQsqaUBKTNV-1">
          <mxGeometry x="15325" y="426" width="20" height="20" as="geometry" />
        </mxCell>
        <mxCell id="y2dhiz86EKQkeLCfZQJ_-34" value="N" style="text;html=1;align=center;verticalAlign=middle;resizable=0;points=[];autosize=1;strokeColor=none;fillColor=none;" vertex="1" parent="WIyWlLk6GJQsqaUBKTNV-1">
          <mxGeometry x="15133" y="415" width="20" height="20" as="geometry" />
        </mxCell>
        <mxCell id="y2dhiz86EKQkeLCfZQJ_-35" value="N" style="text;html=1;align=center;verticalAlign=middle;resizable=0;points=[];autosize=1;strokeColor=none;fillColor=none;" vertex="1" parent="WIyWlLk6GJQsqaUBKTNV-1">
          <mxGeometry x="15106" y="200" width="20" height="20" as="geometry" />
        </mxCell>
        <mxCell id="y2dhiz86EKQkeLCfZQJ_-36" value="0..N" style="text;html=1;align=center;verticalAlign=middle;resizable=0;points=[];autosize=1;strokeColor=none;fillColor=none;" vertex="1" parent="WIyWlLk6GJQsqaUBKTNV-1">
          <mxGeometry x="15358" y="276" width="40" height="20" as="geometry" />
        </mxCell>
        <mxCell id="y2dhiz86EKQkeLCfZQJ_-37" value="1" style="text;html=1;align=center;verticalAlign=middle;resizable=0;points=[];autosize=1;strokeColor=none;fillColor=none;" vertex="1" parent="WIyWlLk6GJQsqaUBKTNV-1">
          <mxGeometry x="15378" y="204" width="20" height="20" as="geometry" />
        </mxCell>
        <mxCell id="y2dhiz86EKQkeLCfZQJ_-38" value="1" style="text;html=1;align=center;verticalAlign=middle;resizable=0;points=[];autosize=1;strokeColor=none;fillColor=none;" vertex="1" parent="WIyWlLk6GJQsqaUBKTNV-1">
          <mxGeometry x="15378" y="345.5" width="20" height="20" as="geometry" />
        </mxCell>
        <mxCell id="y2dhiz86EKQkeLCfZQJ_-39" value="0..N" style="text;html=1;align=center;verticalAlign=middle;resizable=0;points=[];autosize=1;strokeColor=none;fillColor=none;" vertex="1" parent="WIyWlLk6GJQsqaUBKTNV-1">
          <mxGeometry x="15530" y="424" width="40" height="20" as="geometry" />
        </mxCell>
        <mxCell id="y2dhiz86EKQkeLCfZQJ_-40" value="1" style="text;html=1;align=center;verticalAlign=middle;resizable=0;points=[];autosize=1;strokeColor=none;fillColor=none;" vertex="1" parent="WIyWlLk6GJQsqaUBKTNV-1">
          <mxGeometry x="15454" y="425" width="20" height="20" as="geometry" />
        </mxCell>
        <mxCell id="y2dhiz86EKQkeLCfZQJ_-41" value="1" style="text;html=1;align=center;verticalAlign=middle;resizable=0;points=[];autosize=1;strokeColor=none;fillColor=none;" vertex="1" parent="WIyWlLk6GJQsqaUBKTNV-1">
          <mxGeometry x="15434" y="470" width="20" height="20" as="geometry" />
        </mxCell>
        <mxCell id="y2dhiz86EKQkeLCfZQJ_-42" value="0..N" style="text;html=1;align=center;verticalAlign=middle;resizable=0;points=[];autosize=1;strokeColor=none;fillColor=none;" vertex="1" parent="WIyWlLk6GJQsqaUBKTNV-1">
          <mxGeometry x="15478" y="544" width="40" height="20" as="geometry" />
        </mxCell>
        <mxCell id="y2dhiz86EKQkeLCfZQJ_-43" value="1" style="text;html=1;align=center;verticalAlign=middle;resizable=0;points=[];autosize=1;strokeColor=none;fillColor=none;" vertex="1" parent="WIyWlLk6GJQsqaUBKTNV-1">
          <mxGeometry x="15298" y="544" width="20" height="20" as="geometry" />
        </mxCell>
        <mxCell id="y2dhiz86EKQkeLCfZQJ_-44" value="1" style="text;html=1;align=center;verticalAlign=middle;resizable=0;points=[];autosize=1;strokeColor=none;fillColor=none;" vertex="1" parent="WIyWlLk6GJQsqaUBKTNV-1">
          <mxGeometry x="15325" y="480" width="20" height="20" as="geometry" />
        </mxCell>
        <mxCell id="y2dhiz86EKQkeLCfZQJ_-45" value="1" style="text;html=1;align=center;verticalAlign=middle;resizable=0;points=[];autosize=1;strokeColor=none;fillColor=none;" vertex="1" parent="WIyWlLk6GJQsqaUBKTNV-1">
          <mxGeometry x="15451" y="180" width="20" height="20" as="geometry" />
        </mxCell>
        <mxCell id="y2dhiz86EKQkeLCfZQJ_-46" value="0..N" style="text;html=1;align=center;verticalAlign=middle;resizable=0;points=[];autosize=1;strokeColor=none;fillColor=none;" vertex="1" parent="WIyWlLk6GJQsqaUBKTNV-1">
          <mxGeometry x="15548" y="204" width="40" height="20" as="geometry" />
        </mxCell>
        <mxCell id="y2dhiz86EKQkeLCfZQJ_-47" value="1" style="text;html=1;align=center;verticalAlign=middle;resizable=0;points=[];autosize=1;strokeColor=none;fillColor=none;" vertex="1" parent="WIyWlLk6GJQsqaUBKTNV-1">
          <mxGeometry x="15451" y="130" width="20" height="20" as="geometry" />
        </mxCell>
        <mxCell id="y2dhiz86EKQkeLCfZQJ_-48" value="0..N" style="text;html=1;align=center;verticalAlign=middle;resizable=0;points=[];autosize=1;strokeColor=none;fillColor=none;" vertex="1" parent="WIyWlLk6GJQsqaUBKTNV-1">
          <mxGeometry x="15531" y="97" width="40" height="20" as="geometry" />
        </mxCell>
        <mxCell id="y2dhiz86EKQkeLCfZQJ_-49" value="N" style="text;html=1;align=center;verticalAlign=middle;resizable=0;points=[];autosize=1;strokeColor=none;fillColor=none;fontFamily=Verdana;" vertex="1" parent="WIyWlLk6GJQsqaUBKTNV-1">
          <mxGeometry x="15106" y="345.5" width="20" height="20" as="geometry" />
        </mxCell>
        <mxCell id="y2dhiz86EKQkeLCfZQJ_-50" value="N" style="text;html=1;align=center;verticalAlign=middle;resizable=0;points=[];autosize=1;strokeColor=none;fillColor=none;fontFamily=Verdana;" vertex="1" parent="WIyWlLk6GJQsqaUBKTNV-1">
          <mxGeometry x="15156" y="154" width="20" height="20" as="geometry" />
        </mxCell>
        <mxCell id="y2dhiz86EKQkeLCfZQJ_-51" value="N" style="text;html=1;align=center;verticalAlign=middle;resizable=0;points=[];autosize=1;strokeColor=none;fillColor=none;fontFamily=Verdana;" vertex="1" parent="WIyWlLk6GJQsqaUBKTNV-1">
          <mxGeometry x="15325" y="154" width="20" height="20" as="geometry" />
        </mxCell>
        <mxCell id="y2dhiz86EKQkeLCfZQJ_-52" value="&lt;p style=&quot;line-height: 1.3&quot;&gt;ChangeLog&lt;/p&gt;" style="swimlane;html=1;fontStyle=1;align=center;verticalAlign=top;childLayout=stackLayout;horizontal=1;startSize=46;horizontalStack=0;resizeParent=1;resizeLast=0;collapsible=1;marginBottom=0;swimlaneFillColor=#ffffff;rounded=0;shadow=0;comic=0;labelBackgroundColor=none;strokeWidth=1;fontFamily=Verdana;fontSize=12;" vertex="1" collapsed="1" parent="WIyWlLk6GJQsqaUBKTNV-1">
          <mxGeometry x="14880" y="319.5" width="103" height="46" as="geometry">
            <mxRectangle x="430" y="332.5" width="160" height="77" as="alternateBounds" />
          </mxGeometry>
        </mxCell>
        <mxCell id="y2dhiz86EKQkeLCfZQJ_-53" value="" style="line;html=1;strokeWidth=1;fillColor=none;align=left;verticalAlign=middle;spacingTop=-1;spacingLeft=3;spacingRight=3;rotatable=0;labelPosition=right;points=[];portConstraint=eastwest;" vertex="1" parent="y2dhiz86EKQkeLCfZQJ_-52">
          <mxGeometry y="46" width="103" height="8" as="geometry" />
        </mxCell>
        <mxCell id="y2dhiz86EKQkeLCfZQJ_-60" value="N" style="text;html=1;align=center;verticalAlign=middle;resizable=0;points=[];autosize=1;strokeColor=none;fillColor=none;" vertex="1" parent="WIyWlLk6GJQsqaUBKTNV-1">
          <mxGeometry x="15020" y="365.5" width="20" height="20" as="geometry" />
        </mxCell>
        <mxCell id="y2dhiz86EKQkeLCfZQJ_-62" value="&lt;p style=&quot;line-height: 1.3&quot;&gt;Display&lt;/p&gt;" style="swimlane;html=1;fontStyle=1;align=center;verticalAlign=top;childLayout=stackLayout;horizontal=1;startSize=46;horizontalStack=0;resizeParent=1;resizeLast=0;collapsible=1;marginBottom=0;swimlaneFillColor=#ffffff;rounded=0;shadow=0;comic=0;labelBackgroundColor=none;strokeWidth=1;fontFamily=Verdana;fontSize=12;" vertex="1" collapsed="1" parent="WIyWlLk6GJQsqaUBKTNV-1">
          <mxGeometry x="14880" y="424" width="103" height="46" as="geometry">
            <mxRectangle x="430" y="332.5" width="160" height="77" as="alternateBounds" />
          </mxGeometry>
        </mxCell>
        <mxCell id="y2dhiz86EKQkeLCfZQJ_-63" value="" style="line;html=1;strokeWidth=1;fillColor=none;align=left;verticalAlign=middle;spacingTop=-1;spacingLeft=3;spacingRight=3;rotatable=0;labelPosition=right;points=[];portConstraint=eastwest;" vertex="1" parent="y2dhiz86EKQkeLCfZQJ_-62">
          <mxGeometry y="46" width="103" height="8" as="geometry" />
        </mxCell>
        <mxCell id="y2dhiz86EKQkeLCfZQJ_-66" value="N" style="text;html=1;align=center;verticalAlign=middle;resizable=0;points=[];autosize=1;strokeColor=none;fillColor=none;" vertex="1" parent="WIyWlLk6GJQsqaUBKTNV-1">
          <mxGeometry x="15040" y="415" width="20" height="20" as="geometry" />
        </mxCell>
        <mxCell id="y2dhiz86EKQkeLCfZQJ_-71" value="&lt;p style=&quot;line-height: 1.3&quot;&gt;Kanban&lt;/p&gt;" style="swimlane;html=1;fontStyle=1;align=center;verticalAlign=top;childLayout=stackLayout;horizontal=1;startSize=46;horizontalStack=0;resizeParent=1;resizeLast=0;collapsible=1;marginBottom=0;swimlaneFillColor=#ffffff;rounded=0;shadow=0;comic=0;labelBackgroundColor=none;strokeWidth=1;fontFamily=Verdana;fontSize=12;" vertex="1" collapsed="1" parent="WIyWlLk6GJQsqaUBKTNV-1">
          <mxGeometry x="15348" y="30" width="103" height="46" as="geometry">
            <mxRectangle x="430" y="332.5" width="160" height="77" as="alternateBounds" />
          </mxGeometry>
        </mxCell>
        <mxCell id="y2dhiz86EKQkeLCfZQJ_-72" value="" style="line;html=1;strokeWidth=1;fillColor=none;align=left;verticalAlign=middle;spacingTop=-1;spacingLeft=3;spacingRight=3;rotatable=0;labelPosition=right;points=[];portConstraint=eastwest;" vertex="1" parent="y2dhiz86EKQkeLCfZQJ_-71">
          <mxGeometry y="46" width="103" height="8" as="geometry" />
        </mxCell>
        <mxCell id="y2dhiz86EKQkeLCfZQJ_-81" style="edgeStyle=orthogonalEdgeStyle;rounded=0;sketch=0;orthogonalLoop=1;jettySize=auto;html=1;exitX=0.5;exitY=0;exitDx=0;exitDy=0;entryX=0.5;entryY=1;entryDx=0;entryDy=0;startArrow=ERmany;startFill=0;endArrow=none;endFill=0;" edge="1" parent="WIyWlLk6GJQsqaUBKTNV-1" source="y2dhiz86EKQkeLCfZQJ_-75" target="y2dhiz86EKQkeLCfZQJ_-25">
          <mxGeometry relative="1" as="geometry" />
        </mxCell>
        <mxCell id="y2dhiz86EKQkeLCfZQJ_-75" value="&lt;p style=&quot;line-height: 1.3&quot;&gt;Notification&lt;/p&gt;" style="swimlane;html=1;fontStyle=1;align=center;verticalAlign=top;childLayout=stackLayout;horizontal=1;startSize=46;horizontalStack=0;resizeParent=1;resizeLast=0;collapsible=1;marginBottom=0;swimlaneFillColor=#ffffff;rounded=0;shadow=0;comic=0;labelBackgroundColor=none;strokeWidth=1;fontFamily=Verdana;fontSize=12;" vertex="1" collapsed="1" parent="WIyWlLk6GJQsqaUBKTNV-1">
          <mxGeometry x="15348" y="564" width="103" height="46" as="geometry">
            <mxRectangle x="430" y="332.5" width="160" height="77" as="alternateBounds" />
          </mxGeometry>
        </mxCell>
        <mxCell id="y2dhiz86EKQkeLCfZQJ_-76" value="" style="line;html=1;strokeWidth=1;fillColor=none;align=left;verticalAlign=middle;spacingTop=-1;spacingLeft=3;spacingRight=3;rotatable=0;labelPosition=right;points=[];portConstraint=eastwest;" vertex="1" parent="y2dhiz86EKQkeLCfZQJ_-75">
          <mxGeometry y="46" width="103" height="8" as="geometry" />
        </mxCell>
        <mxCell id="y2dhiz86EKQkeLCfZQJ_-84" value="0..N" style="text;html=1;align=center;verticalAlign=middle;resizable=0;points=[];autosize=1;strokeColor=none;fillColor=none;" vertex="1" parent="y2dhiz86EKQkeLCfZQJ_-75">
          <mxGeometry x="76" y="-20" width="40" height="20" as="geometry" />
        </mxCell>
        <mxCell id="y2dhiz86EKQkeLCfZQJ_-82" value="1" style="text;html=1;align=center;verticalAlign=middle;resizable=0;points=[];autosize=1;strokeColor=none;fillColor=none;" vertex="1" parent="WIyWlLk6GJQsqaUBKTNV-1">
          <mxGeometry x="15401" y="480" width="20" height="20" as="geometry" />
        </mxCell>
        <mxCell id="y2dhiz86EKQkeLCfZQJ_-83" value="1" style="text;html=1;align=center;verticalAlign=middle;resizable=0;points=[];autosize=1;strokeColor=none;fillColor=none;" vertex="1" parent="WIyWlLk6GJQsqaUBKTNV-1">
          <mxGeometry x="15401" y="120" width="20" height="20" as="geometry" />
        </mxCell>
        <mxCell id="y2dhiz86EKQkeLCfZQJ_-85" value="0..N" style="text;html=1;align=center;verticalAlign=middle;resizable=0;points=[];autosize=1;strokeColor=none;fillColor=none;" vertex="1" parent="WIyWlLk6GJQsqaUBKTNV-1">
          <mxGeometry x="15421" y="544" width="40" height="20" as="geometry" />
        </mxCell>
      </root>
    </mxGraphModel>
  </diagram>
</mxfile>
